<?xml version="1.0" encoding="utf-8"?>
<svg version="1.1" id="Splatoon 2" xmlns="http://www.w3.org/2000/svg" xmlns:xlink="http://www.w3.org/1999/xlink" x="0px" y="0px"
	 viewBox="0 0 2601.9 1106.9" enable-background="new 0 0 2601.9 1106.9" xml:space="preserve">
<g id="logo">
    
	<path fill="#A0FF01" d="M2238.9,1092c-24,5.3-39.5,0.5-55-15c-9.6-9.6-12.3-26.7-16-67.8c-1.1-13.9-1.1-34.2-8-35.8
		c-221.6-7.5-448.1,55.5-614.2,102c-26.7-27.8-54.5-60.9-75.8-98.3c-22.4-39-27.2-85.4-25.1-131.4c0,0,62.5-51.3,89.7-74.8
		c134.6-115.9,281.4-254.2,316.7-314c17.1-28.8,20.3-64.6,8-85.4c-15.5-24.6-53.9-35.2-89.2-35.2c-47-0.5-86,2.1-179.4,72.1
		c-25.6-21.4-55-52.9-81.2-90.3c-38.5-55.5-46.5-133-42.2-198.1c155.4-74.2,246.2-89.7,327.4-89.7c88.1,0,199.2,6.4,248.9,40.1
		c99.9,67.8,173.6,168.2,152.2,306C2184.4,448,2147,511.5,2068,600.7c-42.7,48.6-75.3,73.2-129.8,118.6
		c65.7-16,151.1-33.1,189.6-40.1c-3.7-36.3-5.9-61.4-5.3-73.7c1.6-45.9,19.2-39,78.5-27.2c105.2,20.3,187.5,40.6,278.8,74.8
		c136.2,50.7,154.9,61.9,73.7,159.1c-22.4,26.7-79,86-243,237.7C2296.6,1062.1,2263.5,1086.7,2238.9,1092z"/>
	<path d="M2225,1059.4c-24,5.3-43.3-3.7-56.1-18.2c-6.9-8-18.7-20.8-23.5-61.4c-1.6-13.9-2.7-31.5-2.7-39.5
		c-221.6-7.5-475.8,63.6-639.3,110c-54.5-44.9-82.8-147.4-69.4-237.1c0,0,59.8-51.8,87-75.3c134.6-115.9,281.4-254.2,316.7-314
		c17.1-28.8,20.3-64.6,8-85.4c-15.5-24.6-53.9-34.7-89.2-35.2c-47-0.5-115.9,16.6-210.9,87c-66.8-52.9-111.6-182.6-99.3-295.3
		c300.1-160.7,510.6-76.4,570.9-41.7c82.2,47,179.4,141,158.1,294.3c-9.6,70.5-30.4,119.1-120.7,220
		c-43.3,48.6-75.3,73.2-129.8,118.6c65.7-16,151.1-33.1,189.6-40.1c-6.4-35.8-7.5-61.4-5.3-73.7c3.7-20.3,29.9-32,78-21.4
		c112.7,24,201.3,45.4,278.8,68.9c118,35.2,142.1,72.1,73.7,158.6c-21.9,27.2-79,86-243,237.7C2282.2,1029,2249,1053.6,2225,1059.4z
		"/>
	<path fill="#FFFFE6" d="M2532.6,689.4c-9.1-17.1-33.1-29.4-77.4-43.8c-87.6-28.3-176.8-49.7-264.4-66.8
		c-60.9-12.3-65.7-5.9-49.7,57.1c3.2,13.4,5.9,25.6,8,38.5c-21.4,2.1-47,5.3-70.5,9.6c-82.8,14.4-244.1,50.2-373.3,96.7
		c116.4-119.1,371.7-259,412.8-458.7c20.3-98.8,1.1-146.3-90.3-217.4c-136.7-105.7-368.5-83.8-551.1,12.3
		c-4.3,53.4,15,133,50.2,194.4c3.2,5.9,6.9,10.7,11.2,16c101.5-87,277.7-103.1,337-11.2c20.3,31.5,13.9,75.8-8,113.2
		c-68.4,115.9-255.8,269.7-402.7,401.6c-3.2,39.5,4.3,89.7,28.3,142.1c2.7,5.3,7.5,12.3,11.7,17.6c194.9-57.1,415-112.7,577.3-114.8
		c47.5-0.5,73.2,2.1,83.3,22.4c0.5,23,1.1,45.4,2.7,68.4c1.6,24,11.7,37.4,18.7,44.9c7.5,8,21.4-6.9,40.6-24
		c136.2-121.8,175.7-147.9,245.7-221.1C2508.6,727.8,2534.2,699.5,2532.6,689.4z"/>
	<path fill="#FF6EFF" d="M2532.6,689.4c-3.7-9.6-21.9-9.6-60.3-23c-82.2-28.8-176.8-49.7-264.4-66.8c-60.9-12.3-65.7-8.5-50.2,57.1
		c3.2,13.4,5.9,25.6,8,38.5c-21.4,2.1-47,5.3-70.5,9.6c-82.8,14.4-244.1,50.2-373.3,96.7c116.4-119.1,371.7-259,412.8-458.7
		c17.6-86-13.4-164-89.7-224.8c-40.1-32-395.2-61.9-552.2,15c-4.3,50.2,11.7,133,43.8,193.9c2.1,3.2,5.9,7.5,8.5,10.1
		c110.5-77.4,277.7-105.7,333.2-13.9c19.8,32,26.7,88.7,4.3,126c-68.4,115.9-255.8,269.7-402.7,401.6c-3.2,36.8,1.6,89.7,23,138.9
		c3.2,4.3,5.9,7.5,9.1,10.7c197.1-58.7,420.8-102.5,585.9-104.7c56.1-0.5,72.6-1.6,74.8,13.9l2.7,23c1.1,21.4,0.5,33.1,4.8,60.9
		c1.6,11.2,3.7,16,9.1,19.8c6.9,4.3,37.9,8,58.7-10.7c136.2-121.8,162.9-146.3,232.8-219c18.2-19.2,29.9-31,40.1-43.8
		C2537.4,719.8,2536.4,699,2532.6,689.4z"/>
	<path fill="#EF3C78" d="M2463.7,656.2c-87.6-28.3-176.8-49.7-264.4-66.8c-60.9-12.3-65.7-8.5-50.2,57.1c3.2,13.4,5.9,25.6,8,38.5
		c-21.4,2.1-47,5.3-70.5,9.6c-82.8,14.4-244.1,50.2-373.3,96.7c121.8-117.5,371.7-259,412.8-458.7c20.3-98.8-20.8-188.5-131.9-248.3
		C1866,15.4,1661,40.5,1484.7,127c-4.3,53.4,17.1,138.9,52.3,200.3c110.5-77.4,283-98.3,342.3-3.7c19.8,31.5,17.6,78.5-4.3,115.9
		c-68.4,115.9-255.8,269.7-402.7,401.6c-3.2,39.5,6.9,97.7,31.5,149.5c197.6-58.7,420.8-102.5,585.9-104.7
		c49.1-0.5,81.7-1.1,83.3,24l0,0c0.5,25.1,1.6,50.2,3.2,73.7c2.1,32.6,21.9,45.9,58.7,12.8c136.2-121.8,166.1-152.2,237.7-223.2
		C2559.3,687.8,2551.3,684.5,2463.7,656.2z"/>
	<path fill="#C83CA0" d="M2097.9,346c20.8-92.9,8-143.1-56.1-220c26.2,21.4,46.5,45.4,60.3,71.6c20.8,40.1,26.2,84.9,16,133
		c-12.8,62.5-49.1,123.9-108.9,190.1c-61.4,67.8-212,185.3-300.7,263.8l-2.7-19.8c85.4-67.3,207.7-164,290.5-255.3
		c31.5-34.7,55.5-68.4,74.2-100.9C2083,387.1,2093.1,366.8,2097.9,346z M2181.2,865.6l0.5-1.1c-27.8-4.3-88.1-4.8-91.3-4.8
		c-150.1,1.6-362.1,39-571.4,99.3c-5.9,1.6-11.2,3.2-16.6,4.8c2.1,5.3,4.3,10.7,6.4,15.5c212-62.5,428.8-100.9,581-102.5
		c47-0.5,65.7,2.1,83.3,4.3L2181.2,865.6z M1540.4,314.5c59.8-39.5,134-63,201.3-63c66.8,0,118.6,23.5,145.3,66.8
		c4.8,8,8.5,16.6,11.2,26.2c-6.9-43.3-36.3-87.6-94-103.6c-80.1-22.4-175.7-1.1-274,53.4C1533.4,301.1,1536.6,308,1540.4,314.5z
		 M2467.5,767.3c32.6-32.6,59.3-60.9,56.6-73.2c-0.5-1.6-1.1-4.3-2.7-5.9c-1.6,3.7-5.3,8-20.3,24.6c-8.5,9.6-23,23.5-43.8,44.3
		c-73.2,73.7-103.1,102.5-236.6,222.7c-10.7,9.6-18.7,16.6-32,19.8c2.7,3.7,6.4,5.9,12.8,5.9l0,0c5.3,0,14.4-2.7,28.3-15
		C2364.4,869.9,2393.8,841,2467.5,767.3z M2193.5,635.4c-20.3-10.7-39-2.1-45.9,3.7c2.7-0.5,8-1.6,9.6-2.1c16-2.1,28.3,2.7,33.1,6.9
		c6.9,6.4,10.1,12.3,12.3,18.2c3.7,9.6,2.7,18.7,0.5,26.7C2208.5,672.3,2215.9,647.2,2193.5,635.4z M2248,807.4
		c-1.6-12.3-8-19.2-17.1-28.3c-8.5-8-22.4-18.7-30.4-28.3c10.7,24.6,35.8,38.5,36.3,74.8c0,13.4-2.1,27.2-5.9,34.7l0,0
		C2240.5,845.3,2250.6,826.6,2248,807.4z"/>
	<g>
		<path d="M2196.2,736.9c-4.3-24,8-50.2,11.2-65.2c-0.5-4.3-2.7-9.1-5.3-13.9c-2.7-4.3-6.4-8.5-11.7-13.9
			c-4.3-4.3-19.8-11.2-42.7-5.3c-40.1,10.7-63,36.8-61.9,71c1.1,34.7,20.8,40.1,22.4,56.6c1.6,18.7-19.2,29.9-7.5,72.6
			c10.1,36.8,49.1,52.9,86,48.1c2.1-0.5,4.3-0.5,6.9-1.1c18.2-3.7,32.6-17.6,36.8-25.1c3.7-6.9,6.4-22.4,6.4-36.3
			C2236.2,782.8,2201.5,771.1,2196.2,736.9z"/>
		<path fill="#FFFFFF" d="M2196.2,736.9c-3.2-16.6,2.1-33.6,6.4-48.1c1.1-3.2,2.7-7.5,3.7-11.2c-0.5-5.3-2.1-10.7-3.7-15.5
			c-1.6-4.3-3.7-8.5-7.5-12.8c-0.5-0.5-0.5-0.5-1.1-1.1c-4.3-3.2-17.1-3.7-25.6-2.7c-18.2,2.1-37.4,11.7-48.1,24.6
			c-9.6,11.7-16,27.2-14.4,43.8c2.1,22.4,9.1,38.5,31.5,47c-20.3,12.8-24.6,34.7-20.3,56.6c7.5,37.9,37.4,54.5,74.8,51.8
			c20.3-1.6,34.2-8.5,42.7-19.2c1.6-7.5,2.7-16,2.7-24.6C2236.2,782.8,2201.5,771.1,2196.2,736.9z"/>
		<path fill="#EFCBFF" d="M2234.6,845.8c0.5-2.1,0.5-4.3,1.1-6.9c-11.2,11.2-27.2,19.2-45.4,20.3c-20.8,2.7-41.1-0.5-55-12.3
			c13.9,15,36.3,21.9,58.7,19.2C2210.6,865.6,2224.5,857.6,2234.6,845.8z"/>
	</g>
	<g>
		<g>
			<g>
				<defs>
					<path id="SVGID_1_" d="M2196.2,736.9c-3.2-16.6,2.1-33.6,6.4-48.1c1.1-3.2,2.7-7.5,3.7-11.2c-0.5-5.3-2.1-10.7-3.7-15.5
						c-1.6-4.3-3.7-8.5-7.5-12.8c-0.5-0.5-0.5-0.5-1.1-1.1c-4.3-3.2-17.1-3.7-25.6-2.7c-18.2,2.1-37.4,11.7-48.1,24.6
						c-9.6,11.7-16,27.2-14.4,43.8c2.1,22.4,9.1,38.5,31.5,47c-20.3,12.8-24.6,34.7-20.3,56.6c7.5,37.9,37.4,54.5,74.8,51.8
						c20.3-1.6,34.2-8.5,42.7-19.2c1.6-7.5,2.7-16,2.7-24.6C2236.2,782.8,2201.5,771.1,2196.2,736.9z"/>
				</defs>
				<clipPath id="SVGID_2_">
					<use xlink:href="#SVGID_1_"  overflow="visible"/>
				</clipPath>
				<g clip-path="url(#SVGID_2_)">
					<path d="M2228.2,702.7c0.5-20.8-18.2-36.8-41.1-37.4c-22.4,0-40.6,15.5-41.1,36.3s17.6,37.9,40.1,37.9
						C2209,740.6,2227.7,723.5,2228.2,702.7z"/>
					<path d="M2239.4,787.1c-3.7-20.3-25.1-33.1-47.5-28.8c-22.4,4.8-36.8,21.9-33.1,45.4c3.7,21.9,25.1,33.1,47.5,28.8
						C2228.2,827.7,2243.2,807.4,2239.4,787.1z"/>
				</g>
			</g>
		</g>
	</g>
	<path fill="#B43E97" d="M2193.5,635.4c-20.3-10.7-39-2.1-45.9,3.7c2.7-0.5,8-1.6,9.6-2.1c16-2.1,28.3,2.7,33.1,6.9
		c6.9,6.4,10.1,12.3,12.3,18.2c3.7,9.6,2.7,18.7,0.5,26.7C2208.5,672.3,2215.9,647.2,2193.5,635.4z"/>
	<path d="M2043.4,619.4h5.9v15h6.4v-15h5.9v-5.3H2044v5.3H2043.4z M2078.1,614.1l-2.7,11.7l0,0l-2.7-11.7h-9.1v20.3h5.9v-12.8l0,0
		l3.7,12.8h4.8l3.7-12.8l0,0v12.8h5.9v-20.3H2078.1z"/>
</g>
</svg>
