<?xml version="1.0" encoding="iso-8859-1"?>
<!-- Generator: Adobe Illustrator 18.0.0, SVG Export Plug-In . SVG Version: 6.00 Build 0)  -->
<!DOCTYPE svg PUBLIC "-//W3C//DTD SVG 1.1//EN" "http://www.w3.org/Graphics/SVG/1.1/DTD/svg11.dtd">
<svg version="1.1" id="Splatoon" xmlns="http://www.w3.org/2000/svg" xmlns:xlink="http://www.w3.org/1999/xlink" x="0px" y="0px" viewBox="0 0 4654.5 2615.1" style="enable-background:new 0 0 4654.5 2615.1;" xml:space="preserve">
<style type="text/css">
	.A{fill:#EE3D96;}
	.B{fill:#A6CE39;}
	.C{fill:#9A3393;}
	.D{fill:#00B6B5;}
	.E{fill:#005BAA;}
	.F{fill:#A5CF4C;}
	.G{fill:#FFFFFF;}
	.H{fill:#DCDDDE;}
	.I{fill:#BCBEC0;}
</style>
<g>
	<path class="A" d="M2128.8,414.1c13.8,2.4,21.4-15,15.1-39.6c-6.1-24.4-23-39.6-33.4-37c-11.7,3.2-19.5,21-12.3,41.6
		C2105.3,399.9,2114.7,411.5,2128.8,414.1 M2680,282.7c-16.6,14.7-9.7,43.9,0.2,56.9c14.2,18.6,46.8,18.6,63.3-0.3
		c15.1-17.8,6.7-46.7-13.1-61.6C2716.9,267.3,2696.7,268.3,2680,282.7 M2907.9,1243.2c-7.4,12.1-0.3,31.7,10.8,44.3
		c10.8,12.4,23.8,13,31.9,4.6c13.9-14,4.5-35.3-7.1-46C2932.5,1235,2913.9,1233.1,2907.9,1243.2 M1788.7,1256.1
		c-20.2,7-29.9,24.9-24.6,40c7.2,20.6,30.3,22.3,51.1,8.9c14.6-9.3,18.8-26.6,9.8-43.3C1820.5,1253.6,1808.2,1249.4,1788.7,1256.1
		 M1683.3,308.8c22-11.4,25.8-38.6,21-52.3c-4.8-13.7-13.8-34.5-48.5-23.1c-24.1,7.9-34.1,38.3-20.6,59.8
		C1645.3,309.2,1664.2,318.7,1683.3,308.8 M1359.8,1153.8c22.1,16.4,57.7,16.8,103.3,0.8c10.5-3.7,21.1-8.2,32.3-13.3
		c14.4-6.9,27.8-14,41.4-21.6c25.3-13.5,51.5-27.3,91.4-43.5c12.4-5.1,26.1-10.1,40.3-15.1c35.8-12.6,75-24.1,98.9-29.1
		c8.3-1.9,19.1-4.3,30.7-6.9c32-7.6,71.7-16.7,96.7-18.8c5.6-0.6,13.3-3,20.6-5.2c18.3-5.7,48.7-15.3,58.6,13.2
		c12.2,34.8-7.6,60.3-23.8,76.2c-5.1,5.2-11.8,8.9-21.4,12.3c-7.4,2.5-15.6,4.6-24.3,6.7c-9.5,2.1-19.3,4.7-28.1,7.8
		c-16.4,5.7-27.2,12.8-34.8,23.3c-6.1,8.2-6.5,16.2-1.5,24.2c6.2,10.6,19.3,17.3,26.8,16c8-1,15.5-3,23-5.6
		c28-9.9,49.5-29.7,73.2-56.5c5.8-6.5,12.2-11.3,19.4-13.8c17-6,32.8,1.5,41.8,10.6c7.2,7,14.6,20.7,12.8,36.6
		c-0.6,9.3-5.9,23.2-24.2,34.6c-27.6,17.5-44.7,37-47.4,54.7c-2,9.7,0.5,18.4,7,27c6.1,7.9,15.6,10.5,26.1,6.8
		c11.8-4.2,21.7-15.7,25.7-30.6c6.7-21.6,21-38.7,37.7-44.5c11.1-3.8,22.4-2.8,32.6,3.4c29.7,17.1,36.4,45.1,18.4,76.5
		c-11.5,20.9-37.2,86-46.8,98.5c-10.8,14.6-51.7,95.6-65.2,121.1c-10,19.4-12.5,43.1-5.8,57.7c2.7,5.8,7,9.3,11.9,10.5
		c9.2,2.1,18.5,1.6,27.2-1.4c13.7-4.8,23.1-15.5,24.5-27.4c6.4-56,69.5-222.3,81.5-253c6-15.1,14.2-24.4,24.6-28.1
		c8.3-2.9,16.2-1.9,22.7-0.3c21.1,4.4,33.3,43.9,29,64.9c-5.4,26.4,3.4,36.6,14.9,49.2c11.8,13.8,27.1,30.8,16.9,66
		c-13.1,47.5-44.8,144.6-66.2,208.9c-5.7,18.3-10.8,33.9-14.6,44.9c-9.4,29.8-7.4,64.5,5.7,83.7c5.7,8.6,12.9,13.4,21.3,14.2
		c5.7,0.6,14.3,0.7,24.2-2.8c24.6-8.7,39.1-32.7,40.6-67.6c4.2-96.4,18-324.8,57.1-362.9c18.2-17.1,23.2-28.6,27.5-37.7
		c5.2-11.2,10.1-22,31.3-29.5c8.5-3,19.6-5.5,34.6-8c16.8-2.8,32.6,1.2,45.2,12c22.1,18.8,76.3,192.7,76,210.5
		c0.1,18.8,8.6,44.9,24.6,56.9c8.1,6.1,16.6,7.5,26.5,4.2l3.2-0.9c15.3-5.4,24.8-13.5,28-24.1c4.4-15.2-3.5-37-22.8-61.5
		c-14.4-18.3-66.2-177-62.1-191.5c2.3-7.2,7.7-16.6,22-21.6c2.7-1,6.4-1.9,9.8-2.6c28-4,77.5,44.3,112,110.5
		c44.3,85.1,84.3,186.6,102.6,244.5c6.7,21.6,23,40.7,43.8,51.1c17.6,9.1,36.7,10.6,53.6,4.7c10.9-3.9,20.9-11.1,29.6-21.5
		c43.2-52.1,26.5-97,5.5-125.3c-12.9-17.1-65.2-68.4-111.6-113.8c-40.3-39.7-41.2-41.3-53.6-56.1l-6.5-7.6
		c-62.4-74.5-31-42.1-54.8-62.6c-12.1-11.2-24.2-48.5-12.4-52.6c25.7-9,36.2-13.7,50.8,11.6c9.6,17,23.8,22.9,31.9,20
		c2.4-0.8,14,1,16-1.9c3.1-4.4,93.9-31.4,6.2-97.5c-7-5.6-35.3-22-41.3-23.9c-16.5-4.9-37.2-25.8-45.7-45.2
		c-6.4-14.2-4.6-24.3-2-30.4c3.9-8.6,15.6-29.1,40.6-37.8c14-4.9,29.5-5.3,46.3-0.8c31.6,8.4,87.7,30,133,47.5
		c14.2,5.2,27.1,10.5,38.3,14.6c69.6,26.3,193.9,89.8,250.5,125.6c19.5,12,45.8,15.3,65.5,8.4c12.7-4.5,22.3-12.9,28.3-25.1
		c1.2-2.3,1.8-10.1-5.6-22.4c-13.4-24-48.6-53.9-103.6-59c-4.4-0.3-8.6-0.7-13.6-1.1c-37.8-3.1-95.3-7.7-127.8-34.5
		c-14-11.3-15.6-21.3-14.7-27.6c1.6-7.4,6.8-12.8,14.2-15.5c11.4-4,28.4-1.9,48.2,6.4c8.5,3.3,18.8,3.6,27.8,0.5
		c9-3.1,15.7-9.1,17.6-15.7c1.5-5.2-0.1-11.4-4.5-17.5c-17.5-23.5-64.8-23.7-168.1-0.7c-52.9,11.9-135.8,0.6-172.4-12.4
		c-20.3-7.2-31.4-17-34.8-29.7c-4.5-17.4,8.8-32.8,13-38c17.6-20.6,9.9-30.8-7-48.6c-9.9-10.6-25-26.6-12.6-44.1
		c4.5-6.2,11.3-10.8,20.4-14c16.8-5.9,39.5-5.9,60.7,0.2c35.7,10,66.1,13,81.6,7.6c2.9-1,4.7-2.1,6.3-3.8c9.5-8.7,9-12.5,2.4-21.4
		c-7.2-9.5-40.3-6.7-52.5-5.8c-24.6,2.1-31.4-11.3-32.8-17.1c-4.5-15.2,6.7-31.7,20.1-38.6c6.9-3.8,17.5-8.1,30.5-12.7
		c17.8-6.2,42.4-13.4,57.2-14.4c21.2-2,37.1-1.5,51.1-1c22.3,0.6,39.6,1.4,67.8-6l3.6-1.1c20.3-7.2,45-29.8,48.3-51.3
		c1.7-11.4,0.4-28-9.2-36.1c-10.5-8.7-30.5-8.2-57.3,1.2c-11.1,3.9-23,9.2-35.7,15.6c-15.3,8-30.3,15.5-44.9,23.3
		c-68,35.2-132.6,68.7-177.7,84.5c-20.7,7.3-36.6,10.5-48.6,10.3c-37.2-0.9-60.7-22.9-67.6-44.2c-5.4-16.5-1.6-36,9.8-46.8
		c4.8-4.7,11.2-8.6,19.2-12.3c10.8-5,218.4-136.5,231.9-140.7c14.2-4.4,28.9-9.1,42.1-15.5c4.6-2,8.1-4,11.7-6
		c15.3-9.4,23.9-18.9,25.7-27.9c1.3-5.8-0.7-11.9-6-18.2c-7.1-9.4-25.1-22.3-46.7-12.1c-7.3,3.2-14.6,9.2-21.3,17.3
		c-16.6,20-256.8,186.3-285,199.6c-3.4,1.6-6.6,2.7-9.5,3.8c-15.1,4.4-30.5-3.2-42.6-16c-11.4-12.7-15.3-29.4-10.7-46.6
		c6.4-24.1,33.7-44.9,62.4-67c15-11.4,30.4-23.2,42.9-35.6c16.3-16.3,20.1-32.3,20.1-43c0-12.4-4.8-22.5-9.6-27.3
		c-2.4-2.9-14.2-5.8-29.2-0.5c-7.3,2.6-20.7,9.1-28.6,24.8c-5.3,10.8-55.3,109.6-81.3,127.8c-7.4,5.2-14.6,8.9-21.5,11.3
		c-15.2,5.3-29.4,4.5-41.2-2.6c-15.1-8.7-25.5-25.9-29.9-49.7c-4.8-25.8,19.5-101.9,27.1-124.5c13.2-39.7,66.8-183.3,83.6-210.5
		c23.9-38.7,49.6-120,36.5-172.5c-2-7.4-7.2-14.3-15.2-18.6c-9.5-5-21.1-5.9-31.5-2.2c-8.5,3-15.8,8.5-22.6,16.6
		c-19.5,23.5-27.8,77.6-32.4,106.6l-0.6,2.5c-19.6,124.2-35.5,213.5-47.3,265.8l-1.9,9.4c-8.2,37.7-21.8,26.6-56,54.9
		c-10.3,8.7-22.9,15.7-36.1,20.3c-32.3,11.3-59.7,60.2-74.4,41.3c-18.6-24.4-31-91.2-25-116.6c1.9-8-1.6-17.9-8.3-24.1
		c-6-5.2-13.3-6.4-21-3.7c-1.4,0.5-33.7,12.3-20.3,52.4c7,20.3,16.1,36.6,24.4,50.2c9.4,15.8,16.6,28.7,17.2,41.9
		c0.3,14.6-6.2,25.5-17.6,29.5c-11,3.8-25,0.1-38.2-10.3c-14.5-11.7-21.2-29.9-26.9-45.9c-9.4-25.5-12.3-26.1-18.7-24l-0.5,0.2
		c-7.5,2.6-11.3,6-12.4,10.6c-1.1,5.6,2.4,13.5,8.7,19.1c10.6,9.8,27.9,26.3,29.2,49.8c0.6,24.4-11.3,32.3-18.4,34.8
		c-9.5,3.3-20.8,1.5-33.5-4.9c-17.2-8.5-41.2-41-82.3-97.8c-7.2-10-14.6-20.1-21.9-30.4c-8.9-11.8-19.4-27-31.5-44.6
		c-21.1-29.6-46.8-66.5-73.2-101.8c-46.5-61.2-94.9-90.5-129.5-78.4c-2.5,0.9-4.7,2-7.4,3.1c-8.9,5.1-13,14.7-14.7,21.8
		c-5.8,20.9,0.3,48.5,15.3,72c25.2,39.1,67.6,76.6,122.7,108.6c46.8,27,119.2,89.9,130.9,106.2c27.3,38.7,34.5,66.2,21.7,84
		c-6,8.3-16.1,15.4-28.4,19.7c-12.5,4.4-26.1,5.2-38.9,2.5c-27.8-6.3-109.1-82.2-123.9-98.1c-6.4-6.9-12.6-12.9-17-16.2
		c-19.4-12.1-37.1-15.5-53.4-9.8c-8.8,3.1-17,8.7-24.6,16.4c-10.7,10.9-9.6,26.3-7.9,34.4c3.2,15.1,13,29.4,23,33.6
		c20.2,8.4,47.8,11.7,70.2,14.4c9.1,1.3,17.2,2.1,23.7,3.2c14.9,2.8,30.7,46.9,37.8,62.9c6.7,15.3,5.2,31.8-3.4,44.6
		c-8.4,13.3,35.7,49.6,18.4,55.6c-7.6,2.6-15.3,3.9-21.7,3.5c-27.1-0.7-55.4-18.2-99-46.7c-18.4-12-34.7-17.4-68-26.7
		c-22.2-6.2-46.4-6.8-62.1-1.3c-5.1,1.8-9.1,4.2-10.7,6.5c-8.7,11.4-12,23.8-9.1,35.1c3,12.4,13.6,22.8,30,29.9
		c20.1,8.8,49.2,12,79.4,8.9c39.3-4.2,48.5,10.9,50.6,20c3.1,12.5-6.1,25.6-21.2,30.9c-2.5,0.9-5.9,1.7-8.7,2
		c-7.4,0.8-14.5,2.5-20.3,4.6c-11.4,3.9-19.1,10-22,16.2c-1.7,4.3-3.7,12.3,0.5,17.8c4.3,5,13.7,6.7,25.1,4.2
		c33.9-7.4,57-11.7,92.4-14.1c34.7-2.1,68.2-0.4,74.7,25.1c4.4,16.8-3.8,39.1-39.7,51.8c-5.7,1.9-12.2,3.5-19.1,5.1
		c-28.1,5.8-55.9,6.1-80.9,6.3c-11.3-0.1-22.4,0-32,0.7c-33.4,2.4-126.9-12-157.2-21.1c-29.3-8.7-71.5-9.2-95.6-0.7
		c-7.4,2.6-10.4,5.2-11.4,6.2c-5.9,6.3-8.5,15.7-6,23.9c2.1,8.6,8.5,15.1,18.8,18.6c10.8,3.4,17.9,13.4,18.4,24.9
		c0.5,11.1-5.9,25.5-25.1,33.2c-2.4,1.1-4.8,2-7.4,2.9c-24.9,8.8-50.1,11-74.8,13.3c-23,1.9-45.4,3.9-65.8,11
		c-2.4,0.8-3.9,1.5-5.4,2.1c-16.7,6.8-26.2,18.5-28.6,33.5C1339.5,1127.6,1346.9,1144.1,1359.8,1153.8 M3017,826.4
		c14,21.3,42,20.1,62.3,13c17-6,31.9-24,29.2-45.1c-3.1-20.8-22.8-33.5-53-22.9C3025.1,782.1,3005.8,809.2,3017,826.4 M1643.3,680
		c8.1-14.3-6.5-42.5-20-52.8c-21.3-15.8-46.2-23.3-62.8-2.5c-16.8,21-13.3,41.3,14.4,59.1C1599.4,699.1,1630.5,702.8,1643.3,680"></path>

</g>
</svg>
