<?xml version="1.0" encoding="utf-8"?>
<svg version="1.1" id="Splatoon 2" xmlns="http://www.w3.org/2000/svg" xmlns:xlink="http://www.w3.org/1999/xlink" x="0px" y="0px"
	 viewBox="0 0 2601.9 1106.9" enable-background="new 0 0 2601.9 1106.9" xml:space="preserve">
<g id="logo">

	<path fill="#E500AA" d="M707.8,600.7c-21.4-24-53.9-37.9-94-39.5c-72.1-1.1-143.1,33.6-161.3,52.3
		c67.3,119.1,96.7,271.8,106.8,371.2l8.5,8.5c18.2,0.5,46.5-5.9,61.9-13.9c3.2-16.6,2.7-64.6-3.2-122.3
		c44.3-19.2,114.8-68.4,119.6-149.5C748.4,661,734.5,624.2,707.8,600.7z M619.1,796.2c-6.4-44.3-15-89.7-26.7-130.3
		c18.7-3.7,42.7,2.1,53.4,13.9c8.5,9.6,11.2,20.8,12.3,25.1C666.1,740.6,646.9,778.5,619.1,796.2z M511.3,859.2
		C510.7,1053,280,1078.7,199.9,1021l-8.5-8.5c-3.7-20.8,12.8-74.2,24-89.7c32,17.1,113.2,19.2,121.8-41.1c0.5-4.8,1.1-13.9,0.5-19.8
		c-1.1-11.2-3.7-17.6-13.9-26.7c-10.7-9.6-21.9-15-49.1-18.7c-42.2-5.9-125.5-17.6-181.6-74.8C66.9,715,44.5,680.3,36.5,630.1
		c-31-221.1,245.7-392,427.2-398.4l8.5,8.5c53.4,52.3,88.7,188,80.1,249.4c-51.8-11.2-210.9,28.8-212,134.6
		c0,19.2,7.5,37.4,20.3,49.7c8.5,8,18.7,15.5,31.5,23c27.8,15.5,51.8,31.5,70.5,51.8C492,775.3,509.6,809.5,511.3,859.2z
		 M871.7,767.9c-12.8,9.6-45.9,21.9-65.2,24c2.1,2.7-8.5-8.5-8.5-8.5C774,739,731.8,605,719.5,518.5c-8,4.3-16,8.5-23,12.8l-8.5-8.5
		c-16.6-19.8-36.8-96.7-31-129.8c25.6-17.1,120.7-41.1,165.6-35.8l8,12.3C814.1,492.8,831.1,628.5,871.7,767.9z M1864,540.9
		c-13.9,50.7-63.6,103.1-91.3,117.5c-8-1.6-20.3-10.7-32-21.4c-2.1-2.1-5.9-10.7-8-14.4c15.5-12.8,40.1-47.5,48.1-87
		c3.7-18.2-2.1-32.6-5.9-42.2c-4.8-12.8-24-16.6-40.1-12.8c-17.6,50.7-32,110.5-36.8,150.1c-13.9,3.7-48.1-1.1-57.7-9.1l-8-9.1
		c-2.1-25.6,11.2-188,47.5-241.4c25.6-0.5,63.6,10.7,80.1,23l8.5,8.5c-1.1,1.6-2.7,4.8-3.7,6.9c17.6-1.6,39,0.5,57.1,11.7
		c6.9,4.3,8.5,5.3,14.4,11.2C1861.3,458.6,1876.3,496.6,1864,540.9z M1603.9,457c16.6,19.2,29.4,42.2,25.6,72.6
		c-6.4,53.9-55,100.9-108.9,106.3c-28.8,2.7-49.1-5.9-69.4-26.7c-5.3-5.3-9.6-10.1-13.9-16.6c-20.3,32-54.5,56.1-91.9,59.8
		c-28.3,2.7-49.1-8-71-28.3c-13.9-12.8-26.7-39-23-68.9c6.4-53.9,55.5-102,108.9-106.8c28.8-2.7,39.5,8,56.1,23.5
		c5.3,5.3,16.6,28.3,20.8,34.7c20.3-32.6,61.4-71.6,98.3-74.8C1563.9,428.7,1587.4,438.4,1603.9,457z M1107.2,449
		c-16.6-8.5-65.2-13.9-96.1-8.5c-2.1,9.1-3.2,18.7-4.3,28.8c-41.1-7.5-108.9,9.6-143.1,65.7c-35.2,59.8,3.2,139.4,15,150.6
		c11.2,10.7,17.6,16,24,19.8c52.9,33.6,108.4,22.4,138.9,6.4l7.5,7.5c16,1.6,43.8-2.7,55-9.6c-12.3-76.4-8.5-178.9,7.5-237.7
		C1108.9,461.8,1108.3,458.1,1107.2,449z M985.5,674.4c-10.1-0.5-18.7-4.3-29.4-10.1c-15-8-19.8-41.1-8-63
		c13.9-23.5,38.5-32.6,59.3-32.6c3.7,37.4,11.2,73.2,18.7,100.4C1014.9,674.4,1005.8,674.9,985.5,674.4z M1239.7,461.8
		c-11.7,59.3-20.8,135.1-17.1,219.5c-17.6,7.5-47,11.7-68.4,10.1l-8.5-8.5c-9.1-41.1-12.8-127.1-6.4-212.6
		c-4.8,1.1-10.7,3.2-16.6,5.3l-8.5-8.5c-4.3-25.1,2.1-83.3,10.1-100.9c9.6-3.2,20.8-5.3,33.1-6.9c3.7-13.4,8-26.2,13.4-38.5
		c23-4.3,80.1-1.1,97.7,6.4l7.5,10.7c-3.2,6.4-6.9,16-11.2,28.3c6.4,1.6,12.3,2.1,17.1,4.3l8,10.1c-9.1,17.6-19.2,61.4-22.4,82.2
		C1261.1,463.5,1251.4,462.4,1239.7,461.8z"/>
	<path fill="#FFFFFF" d="M613.3,561.2c-72.1-1.1-143.1,33.6-161.3,52.3c67.3,119.1,99.9,271.8,110,371.2
		c18.2,0.5,43.3-5.9,58.7-13.4c3.2-16.6,2.7-64.6-3.2-122.3c44.3-19.2,114.8-68.4,119.6-149.5C741.4,615.1,692.8,563.9,613.3,561.2z
		 M612.2,800.4c-6.4-48.1-15.5-98.8-28.3-143.1c27.8-5.3,63,1.1,75.8,38.5C676.8,747,642.1,783.9,612.2,800.4z M502.7,850.6
		c-0.5,193.9-228.6,217.4-307.6,164.5c-3.7-20.8,9.1-76.9,20.3-92.4c32,17.1,117.5,16.6,126-44.3c2.7-23.5-3.7-60.9-75.3-70.5
		c-60.3-8-201.9-30.4-224.8-177.8c-31-221.1,241.4-392,423-398.4c53.4,52.3,88.7,188,80.1,249.4c-51.8-11.2-210.9,28.8-212,134.6
		c0,34.2,20.8,57.7,60.3,81.2C456.2,732.1,500.6,771.6,502.7,850.6z M863.2,758.8c-12.8,9.6-45.9,21.9-65.2,24
		c-25.1-46.5-70-191.2-80.1-277.2c-10.7,5.3-20.8,10.7-29.9,16.6c-16.6-19.8-36.8-96.7-31-129.8c25.6-17.1,120.2-36.8,165-32
		C805.5,484.3,822.6,619.9,863.2,758.8z M1855.5,532.3c-13.9,50.7-64.6,104.1-92.4,118c-11.2-2.1-29.9-18.7-33.6-26.7
		c15.5-12.8,43.3-49.1,51.3-88.1c7.5-36.3-10.7-73.2-54.5-63c-17.6,50.7-32,110.5-36.8,150.1c-13.9,3.7-47.5-1.6-52.9-7.5
		c-3.7-26.2,7.5-190.1,43.8-243.5c25.6-0.5,63,11.2,79.6,24c-3.2,4.8-5.9,10.7-9.1,16.6c18.7-4.8,48.1-4.8,71.6,9.1
		C1854.9,441.6,1868.8,483.2,1855.5,532.3z M1621,520.6c-6.4,53.9-55.5,102-108.9,106.8c-38.5,3.7-68.9-16-80.6-47.5
		c-19.8,34.2-55.5,60.3-94,63.6c-53.4,4.8-91.9-34.7-84.9-88.7c6.4-53.9,55.5-102,108.9-106.8c38.5-3.7,68.9,16,80.6,47.5
		c19.8-34.2,55.5-60.3,94.5-64.1C1589,426.6,1627.4,466.1,1621,520.6z M1106.7,451.2c-16.6-8.5-64.6-16-95.6-10.7
		c-2.1,9.1-3.2,18.7-4.3,28.8c-41.1-7.5-108.9,9.6-143.1,65.7c-37.9,65.2-8.5,137.8,30.4,162.9c55,34.7,112.7,20.3,142.6,3.7
		c1.1,3.2,2.7,6.4,3.7,9.1c16,1.6,43.8-2.7,55-9.6C1082.1,619.4,1087.5,506.7,1106.7,451.2z M979.1,674.4
		c-37.4-5.9-58.7-45.9-39-82.2c15.5-26.7,44.9-34.7,67.3-32c3.7,40.6,11.2,79,19.2,108.9C1014.9,674.4,998.3,677.6,979.1,674.4z
		 M1258.4,456c-5.9-1.1-15.5-2.1-27.2-2.7c-11.7,59.3-20.3,135.1-17.1,219.5c-17.6,7.5-44.3,11.2-65.2,10.1
		c-9.1-42.7-16.6-134.6-8.5-223.2c-8.5,1.6-16,3.7-23,6.4c-4.3-25.1-1.1-82.2,6.9-99.9c9.6-3.2,20.8-5.3,33.1-6.9
		c3.7-13.4,8-26.2,13.4-38.5c23-4.3,79,1.1,96.7,8.5c-3.7,7.5-8.5,19.2-13.4,34.2c10.7,2.1,20.3,5.3,26.7,8.5
		C1271.7,391.4,1261.6,434.6,1258.4,456z"/>
	<path d="M1365.7,462.4c-31.5,2.7-60.3,27.8-64.1,55.5c-3.7,27.8,19.2,48.6,50.7,45.9c31.5-2.7,60.3-27.8,64.1-55.5
		C1419.7,480,1397.2,459.7,1365.7,462.4z M1525.4,447.4c-31.5,3.2-60.3,28.3-63.6,56.6c-3.2,28.3,19.8,48.6,51.3,45.4
		c31.5-3.2,60.3-28.3,63.6-56.6C1579.9,465.1,1556.9,444.2,1525.4,447.4z"/>
		<path fill="#E6E6E6" d="M114.5,595.9c-15.5-3.2-32,17.1-28.3,36.3c5.3,19.8,27.8,19.8,39.5,15C146.5,636.5,132.6,599.6,114.5,595.9
		z M64.8,675.5c-3.7-1.6-8-2.7-12.8-3.2c11.7,31,29.4,54.5,50.2,73.2c2.1-9.1,2.7-18.7,0-27.8C97.4,699.5,79.2,681.3,64.8,675.5z
		 M315.8,719.3c13.4-1.1,20.3-8.5,19.8-19.8c0-8-2.7-26.2-15.5-40.1c-13.9-14.4-29.9-3.7-36.8,3.7c-6.9,7.5-14.4,20.3-10.7,32.6
		C278.4,715,301.4,720.3,315.8,719.3z M220.7,800.4c17.1,3.7,33.1,5.9,45.4,7.5c21.9,3.2,37.9,8.5,49.7,15.5
		c2.7-6.4,4.3-14.4,3.7-24.6c-0.5-23.5-13.4-39-32.6-44.9c-20.8-5.3-45.9,5.9-57.7,18.2C221.8,779.6,219.7,789.2,220.7,800.4z
		 M212.7,739.6c7.5-10.7,13.9-29.9,6.9-46.5c-6.4-16.6-27.2-29.4-42.2-29.4c-13.4,0-26.7,6.4-35.8,19.2c-8.5,12.3-9.1,29.9-6.4,45.4
		c2.7,15.5,13.9,26.7,28.8,28.8C187.6,759.8,205.2,750.2,212.7,739.6z M421,926.5c-16.6,2.7-32.6,17.6-35.8,35.8
		c-3.7,19.8,3.2,38.5,13.9,44.3c3.7,2.1,6.9,3.7,10.1,4.8c25.1-13.4,47.5-32.6,64.6-57.1c-1.6-6.4-5.3-12.3-9.1-16.6
		C456.2,930.2,439.2,923.8,421,926.5z M252.8,931.8c-15-1.1-28.3-4.3-37.4-9.1c-5.9,8.5-12.8,28.8-16.6,49.1c3.7,1.1,8,1.6,13.4,1.1
		c12.8-1.1,25.6-6.4,33.1-15.5C251.7,948.9,253.8,940.4,252.8,931.8z M440.8,727.8c-16.6-4.3-31,1.1-40.6,9.1
		c-11.2,9.1-24.6,26.2-31.5,53.9c-7.5,28.8,6.9,51.3,28.3,62.5c21.9,11.2,55,12.3,73.7,9.6c14.4-2.1,23.5-7.5,31-18.2
		c0.5-0.5,0.5-1.1,1.1-1.6C499,790.3,476,756.1,440.8,727.8z M391.1,900.8c-4.8-13.9-24.6-21.9-35.8-14.4
		c-10.1,6.4-10.7,21.9-8,30.4c3.2,8.5,11.7,15.5,22.4,12.8C383.1,926.5,395.9,914.7,391.1,900.8z M304.6,964.9
		c-24.6-2.7-52.3,18.2-61.9,37.9c-5.3,11.7-5.9,21.4-4.3,30.4c36.8,9.1,83.8,9.1,127.6-3.7c0.5-8,0-16.6-2.7-23
		C354.8,986.3,330.2,968.1,304.6,964.9z"/>
	<path fill="#FFFF78" d="M664.5,700c16.6,51.3-17.1,87.6-51.3,106.3c-0.5-4.3-1.1-8-1.6-12.3c32-19.8,59.3-55,44.3-102.5
		c-2.7-7.5-4.8-12.8-10.1-18.7C653.8,679.2,660.2,688.3,664.5,700z M456.8,617.8C475,599.1,546,564.4,618.1,566
		c35.2,1.1,64.6,11.7,85.4,31c-21.4-24-53.9-37.9-94-39.5c-72.1-1.1-145.8,34.7-164,53.4c72.6,124.4,104.1,274,113.8,373.8
		c0,0,3.2,0,6.9,0C555,885.9,521.9,733.1,456.8,617.8z M387.9,692c-12.8-7.5-23.5-15-32-23c10.7,11.2,23.5,21.4,40.6,31.5
		c23.5,13.4,44.9,27.2,61.9,43.3C440.2,724.1,415.7,707.5,387.9,692z M45,634.3C14,413.2,286.4,242.8,468,235.9
		c-2.7-3.2-5.9-5.9-8.5-8.5C277.9,233.8,5,407.9,35.9,629.5c8,50.2,29.9,82.8,57.1,108.4C70.1,712.3,52,679.2,45,634.3z M219.7,927
		c32,17.1,117.5,16.6,126-44.3c1.6-15,0-35.2-19.2-50.7c10.7,13.9,12.3,29.9,10.7,42.2c-8.5,60.9-94,60.9-126,44.3
		c-11.2,15.5-24,71-19.8,94c2.7,1.6,5.3,3.7,8,5.3C196.7,992.7,209,941.4,219.7,927z M661.3,397.2c24-16,111.1-35.8,160.2-32
		c0.5-2.7,0.5-5.3,1.1-8c-46.5-6.4-144.2,14.4-169.8,31.5c-5.9,32.6,13.9,114.3,35.2,134C673.6,497.6,656,426.1,661.3,397.2z
		 M1748.6,416.5c18.7-4.8,52.3-5.9,78,9.1c3.2,2.1,6.9,4.3,10.1,6.9c-5.3-5.9-11.7-11.2-18.7-15.5c-18.2-10.7-37.9-13.9-64.6-10.7
		C1751.3,410,1750.2,412.7,1748.6,416.5z M1684.6,375.9c21.4,0,55.5,8.5,74.8,20.8c0.5-0.5,0.5-1.1,1.1-2.1
		c-16.6-13.4-51.8-26.7-84.4-27.2c-36.3,53.4-47.5,219.5-43.3,245.7c1.6,1.1,4.8,3.2,8,4.8C1637.6,578.8,1649.8,426.6,1684.6,375.9z
		 M1733.7,628.5c15.5-12.8,43.3-49.1,51.3-88.1c4.8-23-3.2-45.9-16-57.7c9.1,12.8,11.2,31,7.5,49.1c-8,39-35.8,75.3-51.3,88.1
		c1.6,3.7,6.9,9.6,12.8,14.4C1736.4,632.2,1734.8,630.1,1733.7,628.5z M1443.7,503c21.9-38.5,57.7-63.6,96.1-67.3
		c23.5-2.1,43.8,4.3,59.3,16.6c-15.5-18.2-39.5-27.8-67.8-25.1c-36.8,3.2-72.6,28.8-92.9,61.4C1441,493.4,1442.1,498.2,1443.7,503z
		 M1255.7,559c6.4-53.9,55.5-102,108.9-106.8c23.5-2.1,44.9,4.3,59.8,17.1c-16.6-18.2-40.1-28.3-68.4-25.6
		c-53.4,4.8-102.5,52.9-108.9,106.8c-3.7,30.4,6.9,54.5,26.2,72.1C1260,606.6,1253,584.7,1255.7,559z M868,539.3
		c34.2-56.6,102-73.2,143.1-65.7c1.1-9.6,2.7-19.2,4.3-28.8c25.6-4.3,66.8,0,90.3,8.5c0.5-1.6,0.5-2.7,1.1-4.3
		c-21.4-11.2-67.3-18.2-100.4-12.8c-2.1,9.1-3.2,18.7-4.3,28.8c-41.1-7.5-108.9,9.6-143.1,65.7c-35.2,59.8-13.4,126,20.8,155.9
		C851.4,653.6,836,593.8,868,539.3z M983.3,678.7c19.2,3.2,35.2,0,47.5-5.3c-8.5-29.9-16-72.1-19.8-112.7c-2.7,0-4.8-0.5-8-0.5
		c3.7,37.4,11.7,77.4,19.2,104.7c-11.7,5.3-28.3,8.5-47.5,5.3c-10.1-1.6-19.2-5.3-26.7-11.2C958.8,669.1,968.9,676.5,983.3,678.7z
		 M1039.4,706.4c0.5,0,1.1,0,1.6,0c0-0.5,0-0.5-0.5-1.1C1040.5,705.9,1040,706.4,1039.4,706.4z M721.1,504c-2.1,1.1-4.8,2.1-6.9,3.7
		c11.7,89.2,48.1,208.3,83.8,275.6C792.7,768.9,737.2,630.6,721.1,504z M1128.6,371.1c9.6-3.2,20.8-5.3,33.1-6.9
		c3.7-13.4,8-26.2,13.4-38.5c19.2-3.7,67.3-0.5,91.3,6.9c1.1-2.1,1.6-3.2,2.1-4.8c-18.7-8.5-67.3-15-102-10.7
		c-5.3,11.7-9.6,24.6-13.4,38.5c-12.3,1.1-23.5,3.2-33.1,6.9c-8,17.1-12.3,77.4-5.9,105.2c2.1-1.1,4.3-1.6,6.9-2.7
		C1117.4,437.3,1121.7,386,1128.6,371.1z M1253,368.4c6.4,1.1,19.2,3.7,26.7,7.5c0.5-1.6,1.1-2.7,1.6-3.7
		c-5.3-3.2-13.4-6.4-26.2-10.1C1254.6,363.6,1254.1,365.7,1253,368.4z M1145.2,459.2c-3.2,0.5-6.4,1.1-9.6,1.6
		c-6.4,85.4,0,180.5,10.1,222.2c2.1,0,4.3,0,6.9,0C1142,625.3,1137.7,542.5,1145.2,459.2z"/>
	<path fill="#FFD2FF" d="M703,602.8c21.4,23,31.5,56.1,29.4,96.1c-3.7,71-63,121.2-116.4,144.7l-3.2,1.6l0.5,3.7
		c5.3,59.3,5.9,102,3.7,118.6c-13.4,6.4-32.6,11.2-48.1,11.7c0,0-1.1,0-1.6,0c-0.5-3.2-0.5-6.9-1.1-11.2
		c13.9-1.6,28.8-5.9,40.1-11.2c2.1-16.6,2.1-59.3-3.7-118.6l-0.5-3.7l3.2-1.6c53.9-23.5,112.7-74.2,116.4-144.7
		c2.1-39.5-8-72.1-28.8-95.1C696,595.9,699.8,599.6,703,602.8z M596.7,790.8l1.1,7.5l6.4-3.7c1.1-0.5,1.6-1.1,2.7-1.6
		c-6.9-50.2-16-96.7-27.2-134l-1.6-5.3l5.3-1.1c4.3-1.1,8.5-1.6,12.8-1.6c18.2-1.1,34.2,3.2,46.5,12.3c-12.8-16-33.1-24-57.1-23
		c-4.3,0-8.5,0.5-12.8,1.6l-5.3,1.1l1.6,5.3C579.6,688.3,589.8,737.4,596.7,790.8z M941.2,657.8c-2.7-3.2-5.3-7.5-7.5-11.2
		c-8.5-17.6-8-38.5,2.1-56.6c12.3-20.8,33.6-33.6,59.3-34.7c2.1,0,4.3,0,6.9,0c0-1.6-0.5-3.7-0.5-5.3l-0.5-4.3l-4.3-0.5
		c-4.3-0.5-8.5-0.5-12.8-0.5c-25.6,1.6-47.5,13.9-59.3,34.7c-10.1,18.2-10.7,39-2.1,56.6C926.7,645,933.1,652.5,941.2,657.8z
		 M1030.9,689.4l-2.1-5.3l-5.3,2.7c-17.1,9.6-39,16-59.8,17.1c-27.8,1.6-53.9-5.3-77.4-20.3c-2.1-1.1-3.7-2.7-5.3-4.3
		c5.3,5.9,10.7,10.7,16.6,14.4c23.5,15,49.7,21.9,77.4,20.3c20.8-1.1,42.7-7.5,59.8-17.1l2.7-1.6c-1.6,0-2.7,0-4.3,0
		C1032.5,693.6,1031.4,691.5,1030.9,689.4z M1088,450.1c-16.6,59.3-20.8,161.3-9.1,238.2c-8,3.7-23,6.4-36.8,7.5l0,0
		c-0.5,0-1.6,0-2.1,0l1.6,4.3c1.1,2.1,1.6,4.3,2.7,6.4c2.7,0,5.9,0,9.1,0l0,0c13.9-0.5,28.3-3.7,36.8-7.5
		c-12.3-79.6-7.5-186.9,10.7-244.6C1097.1,452.2,1092.8,451.2,1088,450.1z M1825.5,429.3c18.7,21.9,24,55,13.9,91.3
		c-13.4,48.1-60.3,98.8-88.1,114.3c-3.7-1.1-9.1-4.3-13.9-8c5.9,6.9,17.1,16,24.6,18.7c27.8-15.5,74.8-66.2,88.1-114.3
		C1862.4,488.6,1852.8,450.1,1825.5,429.3z M1765.7,473.1c-0.5-1.1-1.6-1.6-2.1-2.7c-9.1-10.7-21.9-16-37.4-15
		c-3.7,0-8,0.5-11.7,1.6l-2.7,0.5l-1.1,2.7c-17.1,49.7-31.5,107.3-36.8,147.4c-1.1,0-2.7,0.5-4.3,0.5c-9.6,0.5-20.8-1.1-28.8-2.7
		c0,2.7,0,5.3,0.5,6.9c4.8,2.7,24,6.9,39.5,5.9c1.6,0,2.7,0,4.3-0.5c5.3-40.1,19.8-97.2,36.8-147.4l1.1-2.7l2.7-0.5
		c4.3-1.1,8-1.6,11.7-1.6C1748.1,465.1,1757.7,467.7,1765.7,473.1z M1748.6,405.2c1.6-2.7,3.2-5.9,4.3-8.5c-3.7-2.1-8-4.8-12.8-6.9
		c-1.6,3.2-3.2,5.9-4.8,9.6l-4.8,9.6l10.7-2.7C1743.3,406.3,1746,405.8,1748.6,405.2z M712.6,503c-0.5-2.7-0.5-5.3-1.1-8l-1.1-6.9
		l-6.4,3.2c-7.5,3.7-15,8-21.9,11.7c2.1,5.3,4.3,9.6,6.9,12.8C696.6,511.5,704,506.7,712.6,503z M816.2,365.7
		c-3.7,0-7.5-0.5-12.3-0.5c-12.3,113.2,1.6,241.4,42.2,381.3c-11.7,7.5-34.2,16-51.3,19.8c2.1,4.3,3.7,8,5.3,11.2
		c17.6-2.7,43.8-12.3,56.6-20.8C815.7,613,801.8,481.1,816.2,365.7z M1261.1,371.6c-6.9,19.2-14.4,48.6-17.6,67.8
		c-5.9-1.1-13.9-1.6-23-1.6h-4.3l-1.1,4.3c-13.9,70.5-19.8,145.3-17.1,217.4c-12.3,4.8-28.8,7.5-45.4,8.5c-0.5,0-0.5,0-1.1,0
		c0.5,3.7,1.1,7.5,2.1,10.7c3.2,0,6.9,0,10.1,0c16.6-1.1,33.1-4.3,45.4-8.5c-2.7-72.1,3.2-146.9,17.1-217.4l1.1-4.3h4.3
		c9.1,0.5,17.1,1.1,23,1.6c3.7-21.4,11.7-55.5,19.8-74.2C1270.7,374.3,1265.9,373.2,1261.1,371.6z M1250.4,361.4
		c3.7-10.7,7.5-20.3,10.7-27.8c-3.7-1.1-8.5-2.1-13.9-3.2c-2.7,6.9-5.3,14.4-8.5,23l-1.6,5.3l5.3,1.1
		C1245,360.4,1247.7,360.9,1250.4,361.4z M1121.1,446.4c0,4.8,0.5,9.1,1.1,13.4c3.7-1.1,8-2.1,12.3-3.2c0-2.1,0.5-4.3,0.5-6.4
		l0.5-6.9l-6.4,1.6C1125.9,445.3,1123.3,445.8,1121.1,446.4z M460,236.5c45.9,57.1,73.7,172.5,68.4,228c-6.9-1.1-15.5-1.1-24.6-0.5
		c-75.3,3.7-186.9,51.3-188,141c0,25.1,10.1,45.4,33.6,65.2c-15.5-16.6-22.4-34.2-22.4-55c1.1-89.7,112.7-137.3,188-141
		c9.1-0.5,17.6,0,24.6,0.5c5.3-59.3-26.2-185.8-77.4-238.2C461.1,236.5,460.5,236.5,460,236.5z M446.1,739
		c24.6,25.6,39,56.6,40.6,101.5c-0.5,128.2-103.1,178.9-190.7,183.2l0,0c-36.8,2.1-71.6-4.3-96.7-16c0,1.6,0,3.2,0,4.3
		c25.1,16,65.2,24,107.3,21.9l0,0c87.6-4.8,190.1-55.5,190.7-183.2C496.3,799.9,477.6,766.3,446.1,739z M323.8,822.9
		c-11.2-13.9-32-25.6-68.4-30.4c-51.8-6.9-115.4-20.8-161.3-61.4c46.5,48.1,115.9,64.1,172,71.6
		C292.8,806.3,311.5,813.8,323.8,822.9z M1421.3,557.4l-5.3,9.6c-19.2,33.6-55,58.2-90.3,61.4c-1.1,0-2.7,0-3.7,0.5
		c-18.7,1.1-35.8-3.7-49.1-13.9c0.5,1.1,1.6,1.6,2.1,2.7c14.4,15,34.7,23,57.7,21.4c1.1,0,2.7,0,3.7-0.5c35.8-3.2,71-27.2,90.3-61.4
		l1.6-2.7c-1.1-2.1-2.1-4.8-3.2-7.5L1421.3,557.4z M1589,450.1c12.8,15.5,18.7,36.3,16,59.3c-6.4,51.8-52.9,97.7-104.1,102.5
		c-1.1,0-2.7,0-3.7,0c-18.7,1.1-35.8-4.3-49.1-13.9c13.9,16.6,35.2,25.6,60.3,24.6c1.1,0,2.7,0,3.7,0
		c51.3-4.8,98.3-50.7,104.1-102.5c3.2-24-3.7-46.5-18.2-61.9C1594.8,454.9,1592.2,452.8,1589,450.1z M1413.8,466.7
		c4.8,5.9,9.1,12.8,11.7,20.3l3.7,10.1l3.7-6.9C1428.7,480.5,1421.8,472.5,1413.8,466.7z"/>
</g>
</svg>
