<?xml version="1.0" encoding="utf-8"?>
<svg version="1.1" id="Splatoon 2" xmlns="http://www.w3.org/2000/svg" xmlns:xlink="http://www.w3.org/1999/xlink" x="0px" y="0px"
	 viewBox="0 0 2601.9 1106.9" enable-background="new 0 0 2601.9 1106.9" xml:space="preserve">
<g id="logo">
    <path fill="#A0FF01" d="M1643.4,460.2c-13.4-13.9-37.9-30.4-77.4-31c-36.3,0-66.2,16-84.4,25.6c-2.1,1.1-11.2,6.9-20.3,6.9
		c-6.4,0-16-4.8-21.4-6.9c-8-3.2-23.5-9.6-47-9.6c-4.8,0-9.6,0-13.9,0.5c-16.6,1.6-32,5.9-47,12.8c6.4-26.2,15-51.8,25.6-71.6
		c-8-5.9-18.7-12.3-27.2-16c3.7-10.7,9.1-22.4,13.4-31.5c-31-24-102-41.7-180-31c-2.7,5.9-13.4,32-16,39.5c-6.4,1.1-20.8,5.3-32,9.6
		c-5.3,16-12.3,45.9-13.9,70.5c-29.9-6.4-68.9-8.5-103.1,0.5c-1.6,5.9-3.7,17.6-4.8,23c-35.8,2.7-80.6,17.1-115.4,49.7
		c-1.1-54.5,1.6-105.2,8-145.8c-19.8-3.7-44.3-5.9-66.8-5.9c-66.2,0-135.6,16-176.8,40.6l-1.1,0.5v1.1
		c-6.4,41.7,8.5,119.1,29.4,160.7c-13.9-2.7-27.2-5.3-54.5-5.3c-74.8,0-156.5,40.6-194.9,78.5l-1.6,1.6l1.6,2.1
		c19.2,27.8,35.2,56.6,49.1,86c-2.7-1.6-4.8-3.2-7.5-4.8c-31-19.2-60.3-44.9-65.7-65.7c-26.2-99.3,149-112.2,205.1-97.7
		c8-64.6,0.5-129.8-19.8-192.8c-20.3-62.5-51.8-113.8-87.6-142.1c-80.1,3.2-157,20.8-224.8,58.2C32.2,402.6,9.2,570.3,22.1,656.8
		v0.5c36.3,173.6,215.2,210.9,269.2,217.9c15.5,2.1,32.6,7.5,31,16.6c-3.2,20.8-33.6,22.4-42.7,22.4l0,0c-10.7,0-29.4-6.4-55.5-19.8
		l-2.1-1.1l-1.6,1.6c-27.2,28.8-50.7,107.9-45.4,152.2c39.5,39.5,88.7,59.8,149,59.8l0,0c88.7,0,182.6-40.1,223.8-126
		c3.7,25.6,5.9,47.5,8,64.6c44.9,3.2,99.9-4.3,128.2-19.2c6.4-42.7,5.9-80.6,2.7-125c31-17.6,58.2-40.1,78-66.2
		c7.5-9.6,13.4-19.2,18.7-28.8c9.6,21.9,17.1,37.4,20.8,40.1c41.1-3.2,95.1-22.4,127.6-45.9c-4.8-11.7-9.6-24-13.9-37.4
		c35.2,19.2,66.2,21.9,80.6,21.9c19.2,0,38.5-3.2,57.1-9.1c37.9,4.3,87.6-9.1,105.7-25.6c49.1,1.6,89.2-7.5,118.6-23.5l-1.1-24.6
		c0-3.7-0.5-7.5-0.5-11.2c4.8,3.7,9.6,7.5,15,10.1c15.5,8.5,33.1,12.8,52.3,12.8c29.9-0.5,44.9-4.8,75.3-20.8
		c6.4-3.7,17.1-9.1,24-10.7c2.1-0.5,4.3-0.5,6.4-0.5c4.8,0,9.1,1.1,13.4,3.2c18.2,9.6,40.6,17.1,76.9,12.8
		c33.1-3.7,64.6-20.3,89.2-45.9c24-25.1,40.1-58.2,44.9-92.4C1681.9,522.2,1671.2,489.1,1643.4,460.2z"/>
	
</g>
</svg>
