<?xml version="1.0" encoding="iso-8859-1"?>
<!-- Generator: Adobe Illustrator 18.0.0, SVG Export Plug-In . SVG Version: 6.00 Build 0)  -->
<!DOCTYPE svg PUBLIC "-//W3C//DTD SVG 1.1//EN" "http://www.w3.org/Graphics/SVG/1.1/DTD/svg11.dtd">
<svg version="1.1" id="Capa_1" xmlns="http://www.w3.org/2000/svg" xmlns:xlink="http://www.w3.org/1999/xlink" x="0px" y="0px"
	 viewBox="0 0 297 297" style="enable-background:new 0 0 297 297;" xml:space="preserve">
<g>
	<path d="M268.201,220.605H2.591c-1.429,0-2.591,1.162-2.591,2.588v35.428c0,1.428,1.162,2.59,2.591,2.59h265.61
		c1.428,0,2.59-1.162,2.59-2.59v-35.428C270.791,221.768,269.629,220.605,268.201,220.605z"/>
	<path d="M249.039,101.412c-2.459,1.23-2.881,3.83-0.938,5.776l45.365,45.43c1.943,1.946,3.533,1.288,3.533-1.462V82.4
		c0-2.75-2.012-3.992-4.471-2.762L249.039,101.412z"/>
	<path d="M276.234,69.584c2.459-1.231,2.221-2.238-0.529-2.238H112.664c-2.75,0-2.988,1.008-0.529,2.238l77.578,38.842
		c2.459,1.231,6.482,1.231,8.941,0L276.234,69.584z"/>
	<path d="M254.752,188.484H93.404c-10.102,0-18.323-8.221-18.323-18.324V69.381c0-10.104,8.221-18.322,18.323-18.322h161.348v-5.09
		c0-5.623-4.558-10.18-10.18-10.18H26.219c-5.622,0-10.18,4.557-10.18,10.18v158.35h238.713V188.484z"/>
	<path d="M91.368,151.156c0,2.75,1.59,3.408,3.533,1.462l45.364-45.428c1.943-1.946,1.521-4.546-0.938-5.776L95.839,79.641
		c-2.459-1.23-4.471,0.012-4.471,2.762V151.156z"/>
	<path d="M198.695,125.899c-2.482,1.185-6.543,1.185-9.025,0l-26.04-12.424c-2.482-1.185-6.102-0.561-8.045,1.386l-53.684,53.795
		c-1.943,1.946-1.282,3.539,1.468,3.539h181.629c2.75,0,3.411-1.593,1.468-3.539l-53.684-53.797
		c-1.943-1.946-5.563-2.57-8.045-1.386L198.695,125.899z"/>
</g>
<g>
</g>
<g>
</g>
<g>
</g>
<g>
</g>
<g>
</g>
<g>
</g>
<g>
</g>
<g>
</g>
<g>
</g>
<g>
</g>
<g>
</g>
<g>
</g>
<g>
</g>
<g>
</g>
<g>
</g>
</svg>
